<svg width="104" height="104" viewBox="0 0 104 104" fill="none" xmlns="http://www.w3.org/2000/svg">
<g filter="url(#filter0_bd_63_310)">
<rect x="4" width="96" height="96" rx="48" fill="url(#paint0_linear_63_310)" shape-rendering="crispEdges"/>
<rect x="4.5" y="0.5" width="95" height="95" rx="47.5" stroke="white" shape-rendering="crispEdges"/>
</g>
<path d="M69.5453 53.9896C70.3122 52.1425 70.539 48.9883 70.4607 47.873C69.6155 48.6049 67.5415 50.9921 66.7746 52.8392C66.0077 54.6863 66.7395 55.5315 67.2013 55.7233C67.663 55.915 68.7783 55.8367 69.5453 53.9896Z" fill="#AAEBFF"/>
<path d="M61.1954 81.9229C61.9624 80.0758 62.1892 76.9217 62.1109 75.8064C61.2656 76.5382 59.1917 78.9254 58.4248 80.7725C57.6578 82.6196 58.3897 83.4649 58.8514 83.6566C59.3132 83.8483 60.4285 83.77 61.1954 81.9229Z" fill="#AAEBFF"/>
<path d="M59.0928 60.3077C59.8598 58.4606 60.0866 55.3064 60.0083 54.1912C59.163 54.923 57.0891 57.3102 56.3222 59.1573C55.5552 61.0044 56.2871 61.8497 56.7488 62.0414C57.2106 62.2331 58.3259 62.1548 59.0928 60.3077Z" fill="#AAEBFF"/>
<path d="M50.7293 75.2449C51.4962 73.3978 51.7231 70.2437 51.6448 69.1284C50.7995 69.8602 48.7256 72.2474 47.9586 74.0946C47.1917 75.9417 47.9235 76.7869 48.3853 76.9786C48.8471 77.1704 49.9624 77.0921 50.7293 75.2449Z" fill="#AAEBFF"/>
<path d="M62.9237 49.0748C63.6907 47.2277 63.9175 44.0735 63.8392 42.9583C62.9939 43.6901 60.92 46.0773 60.1531 47.9244C59.3861 49.7715 60.118 50.6167 60.5797 50.8085C61.0415 51.0002 62.1568 50.9219 62.9237 49.0748Z" fill="#AAEBFF"/>
<path d="M60.0288 71.6937C60.7958 69.8466 61.0226 66.6924 60.9443 65.5771C60.099 66.309 58.0251 68.6962 57.2582 70.5433C56.4912 72.3904 57.2231 73.2356 57.6848 73.4274C58.1466 73.6191 59.2619 73.5408 60.0288 71.6937Z" fill="#AAEBFF"/>
<path d="M68.7119 66.2193C69.4788 64.3722 69.7056 61.2181 69.6273 60.1028C68.7821 60.8346 66.7081 63.2218 65.9412 65.0689C65.1743 66.916 65.9061 67.7613 66.3679 67.953C66.8297 68.1447 67.9449 68.0664 68.7119 66.2193Z" fill="#AAEBFF"/>
<path d="M32.7119 61.2193C33.4788 59.3722 33.7056 56.2181 33.6273 55.1028C32.7821 55.8346 30.7081 58.2218 29.9412 60.0689C29.1743 61.916 29.9061 62.7613 30.3679 62.953C30.8297 63.1447 31.9449 63.0664 32.7119 61.2193Z" fill="#AAEBFF"/>
<path d="M49.5453 53.9898C50.3122 52.1427 50.539 48.9886 50.4607 47.8733C49.6155 48.6051 47.5415 50.9923 46.7746 52.8394C46.0077 54.6865 46.7395 55.5318 47.2013 55.7235C47.6631 55.9152 48.7784 55.8369 49.5453 53.9898Z" fill="#AAEBFF"/>
<path d="M41.1955 81.9234C41.9624 80.0763 42.1892 76.9222 42.1109 75.8069C41.2657 76.5387 39.1917 78.9259 38.4248 80.773C37.6579 82.6201 38.3897 83.4654 38.8515 83.6571C39.3132 83.8488 40.4285 83.7705 41.1955 81.9234Z" fill="#AAEBFF"/>
<path d="M41.0929 56.3082C41.8598 54.4611 42.0866 51.3069 42.0083 50.1916C41.1631 50.9235 39.0891 53.3107 38.3222 55.1578C37.5553 57.0049 38.2871 57.8501 38.7489 58.0419C39.2106 58.2336 40.3259 58.1553 41.0929 56.3082Z" fill="#AAEBFF"/>
<path d="M32.7293 75.2454C33.4963 73.3983 33.7231 70.2442 33.6448 69.1289C32.7995 69.8607 30.7256 72.2479 29.9587 74.095C29.1917 75.9422 29.9236 76.7874 30.3853 76.9791C30.8471 77.1709 31.9624 77.0925 32.7293 75.2454Z" fill="#AAEBFF"/>
<path d="M42.9238 49.075C43.6907 47.2279 43.9175 44.0738 43.8392 42.9585C42.994 43.6903 40.92 46.0775 40.1531 47.9246C39.3862 49.7717 40.118 50.617 40.5798 50.8087C41.0415 51.0004 42.1568 50.9221 42.9238 49.075Z" fill="#AAEBFF"/>
<path d="M41.0289 69.6942C41.7958 67.8471 42.0226 64.6929 41.9443 63.5776C41.0991 64.3095 39.0251 66.6967 38.2582 68.5438C37.4913 70.3909 38.2231 71.2361 38.6849 71.4279C39.1466 71.6196 40.2619 71.5413 41.0289 69.6942Z" fill="#AAEBFF"/>
<path d="M50.7119 64.2193C51.4788 62.3722 51.7056 59.2181 51.6273 58.1028C50.7821 58.8346 48.7081 61.2218 47.9412 63.0689C47.1743 64.916 47.9061 65.7613 48.3679 65.953C48.8297 66.1447 49.9449 66.0664 50.7119 64.2193Z" fill="#AAEBFF"/>
<mask id="path-18-inside-1_63_310" fill="white">
<path fill-rule="evenodd" clip-rule="evenodd" d="M63.4832 51.789C60.4589 53.7309 56.861 54.8571 53 54.8571C47.7894 54.8571 43.0579 52.806 39.5689 49.467C38.4405 49.8135 37.242 50 36 50C34.6533 50 33.3578 49.7808 32.1473 49.376C31.0799 49.7793 29.9229 50 28.7143 50C23.3492 50 19 45.6508 19 40.2858C19 35.8593 21.9606 32.1244 26.0096 30.953C28.2012 27.7876 31.8585 25.7143 36 25.7143C36.0567 25.7143 36.1134 25.7147 36.1699 25.7154C39.5291 19.9076 45.8082 16 53 16C60.2777 16 66.6208 20.0015 69.9491 25.9244C70.7549 25.7862 71.5833 25.7143 72.4286 25.7143C80.4761 25.7143 87 32.2381 87 40.2857C87 48.3333 80.4761 54.8571 72.4286 54.8571C69.0567 54.8571 65.9523 53.7118 63.4832 51.789Z"/>
</mask>
<path fill-rule="evenodd" clip-rule="evenodd" d="M63.4832 51.789C60.4589 53.7309 56.861 54.8571 53 54.8571C47.7894 54.8571 43.0579 52.806 39.5689 49.467C38.4405 49.8135 37.242 50 36 50C34.6533 50 33.3578 49.7808 32.1473 49.376C31.0799 49.7793 29.9229 50 28.7143 50C23.3492 50 19 45.6508 19 40.2858C19 35.8593 21.9606 32.1244 26.0096 30.953C28.2012 27.7876 31.8585 25.7143 36 25.7143C36.0567 25.7143 36.1134 25.7147 36.1699 25.7154C39.5291 19.9076 45.8082 16 53 16C60.2777 16 66.6208 20.0015 69.9491 25.9244C70.7549 25.7862 71.5833 25.7143 72.4286 25.7143C80.4761 25.7143 87 32.2381 87 40.2857C87 48.3333 80.4761 54.8571 72.4286 54.8571C69.0567 54.8571 65.9523 53.7118 63.4832 51.789Z" fill="url(#paint1_linear_63_310)"/>
<path d="M63.4832 51.789L64.0976 51L63.5388 50.5649L62.9429 50.9475L63.4832 51.789ZM39.5689 49.467L40.2603 48.7446L39.8364 48.3388L39.2754 48.5111L39.5689 49.467ZM32.1473 49.376L32.4643 48.4276L32.1268 48.3148L31.7938 48.4406L32.1473 49.376ZM26.0096 30.953L26.2875 31.9136L26.6292 31.8147L26.8317 31.5222L26.0096 30.953ZM36.1699 25.7154L36.1562 26.7153L36.7422 26.7234L37.0356 26.2161L36.1699 25.7154ZM69.9491 25.9244L69.0773 26.4143L69.4229 27.0292L70.1181 26.91L69.9491 25.9244ZM62.9429 50.9475C60.075 52.789 56.6637 53.8571 53 53.8571V55.8571C57.0582 55.8571 60.8428 54.6728 64.0235 52.6305L62.9429 50.9475ZM53 53.8571C48.0572 53.8571 43.5707 51.9125 40.2603 48.7446L38.8775 50.1895C42.5452 53.6994 47.5216 55.8571 53 55.8571V53.8571ZM39.2754 48.5111C38.241 48.8287 37.1414 49 36 49V51C37.3426 51 38.64 50.7983 39.8625 50.423L39.2754 48.5111ZM36 49C34.7624 49 33.574 48.7986 32.4643 48.4276L31.8302 50.3244C33.1416 50.7629 34.5441 51 36 51V49ZM31.7938 48.4406C30.8376 48.8019 29.8003 49 28.7143 49V51C30.0455 51 31.3221 50.7568 32.5007 50.3115L31.7938 48.4406ZM28.7143 49C23.9015 49 20 45.0985 20 40.2858H18C18 46.2031 22.7969 51 28.7143 51V49ZM20 40.2858C20 36.3164 22.6547 32.9646 26.2875 31.9136L25.7317 29.9924C21.2664 31.2842 18 35.4022 18 40.2858H20ZM26.8317 31.5222C28.8446 28.6151 32.2004 26.7143 36 26.7143V24.7143C31.5165 24.7143 27.5578 26.9602 25.1874 30.3837L26.8317 31.5222ZM36 26.7143C36.0521 26.7143 36.1042 26.7146 36.1562 26.7153L36.1836 24.7155C36.1226 24.7147 36.0613 24.7143 36 24.7143V26.7143ZM37.0356 26.2161C40.2233 20.7046 46.1796 17 53 17V15C45.4368 15 38.8348 19.1106 35.3043 25.2148L37.0356 26.2161ZM53 17C59.9018 17 65.9188 20.7937 69.0773 26.4143L70.8209 25.4345C67.3227 19.2093 60.6536 15 53 15V17ZM70.1181 26.91C70.8683 26.7814 71.6402 26.7143 72.4286 26.7143V24.7143C71.5265 24.7143 70.6415 24.7911 69.7802 24.9387L70.1181 26.91ZM72.4286 26.7143C79.9239 26.7143 86 32.7904 86 40.2857H88C88 31.6858 81.0284 24.7143 72.4286 24.7143V26.7143ZM86 40.2857C86 47.781 79.9239 53.8571 72.4286 53.8571V55.8571C81.0284 55.8571 88 48.8856 88 40.2857H86ZM72.4286 53.8571C69.287 53.8571 66.3973 52.7909 64.0976 51L62.8688 52.578C65.5073 54.6327 68.8263 55.8571 72.4286 55.8571V53.8571Z" fill="white" mask="url(#path-18-inside-1_63_310)"/>
<defs>
<filter id="filter0_bd_63_310" x="-16" y="-20" width="136" height="136" filterUnits="userSpaceOnUse" color-interpolation-filters="sRGB">
<feFlood flood-opacity="0" result="BackgroundImageFix"/>
<feGaussianBlur in="BackgroundImage" stdDeviation="10"/>
<feComposite in2="SourceAlpha" operator="in" result="effect1_backgroundBlur_63_310"/>
<feColorMatrix in="SourceAlpha" type="matrix" values="0 0 0 0 0 0 0 0 0 0 0 0 0 0 0 0 0 0 127 0" result="hardAlpha"/>
<feOffset dy="4"/>
<feGaussianBlur stdDeviation="2"/>
<feComposite in2="hardAlpha" operator="out"/>
<feColorMatrix type="matrix" values="0 0 0 0 0 0 0 0 0 0 0 0 0 0 0 0 0 0 0.25 0"/>
<feBlend mode="normal" in2="effect1_backgroundBlur_63_310" result="effect2_dropShadow_63_310"/>
<feBlend mode="normal" in="SourceGraphic" in2="effect2_dropShadow_63_310" result="shape"/>
</filter>
<linearGradient id="paint0_linear_63_310" x1="52" y1="0" x2="52" y2="96" gradientUnits="userSpaceOnUse">
<stop stop-color="white" stop-opacity="0"/>
<stop offset="0.713542" stop-color="white" stop-opacity="0.234375"/>
<stop offset="1" stop-color="white" stop-opacity="0.5"/>
</linearGradient>
<linearGradient id="paint1_linear_63_310" x1="49" y1="50.5" x2="46.5" y2="22.5" gradientUnits="userSpaceOnUse">
<stop stop-color="white"/>
<stop offset="1" stop-color="#C4DCF3"/>
</linearGradient>
</defs>
</svg>
