<svg width="104" height="104" viewBox="0 0 104 104" fill="none" xmlns="http://www.w3.org/2000/svg">
<g filter="url(#filter0_bd_70_368)">
<rect x="4" width="96" height="96" rx="48" fill="url(#paint0_linear_70_368)" shape-rendering="crispEdges"/>
<rect x="4.5" y="0.5" width="95" height="95" rx="47.5" stroke="white" shape-rendering="crispEdges"/>
</g>
<mask id="path-3-inside-1_70_368" fill="white">
<path fill-rule="evenodd" clip-rule="evenodd" d="M58.9835 49.3681C61.2962 50.8531 64.0475 51.7143 67 51.7143C70.9845 51.7143 74.6027 50.1458 77.2707 47.5925C78.1337 47.8575 79.0502 48.0001 80 48.0001C81.0299 48.0001 82.0206 47.8324 82.9464 47.5229C83.7625 47.8313 84.6473 48 85.5714 48C89.6741 48 93 44.6741 93 40.5715C93 37.1865 90.736 34.3303 87.6396 33.4346C85.9637 31.0141 83.167 29.4287 80 29.4287C79.9566 29.4287 79.9133 29.429 79.8701 29.4296C77.3014 24.9882 72.4997 22 67 22C61.4347 22 56.584 25.06 54.0388 29.5893C53.4227 29.4837 52.7892 29.4287 52.1429 29.4287C45.9888 29.4287 41 34.4175 41 40.5715C41 46.7255 45.9888 51.7144 52.1429 51.7144C54.7214 51.7144 57.0954 50.8385 58.9835 49.3681Z"/>
</mask>
<path fill-rule="evenodd" clip-rule="evenodd" d="M58.9835 49.3681C61.2962 50.8531 64.0475 51.7143 67 51.7143C70.9845 51.7143 74.6027 50.1458 77.2707 47.5925C78.1337 47.8575 79.0502 48.0001 80 48.0001C81.0299 48.0001 82.0206 47.8324 82.9464 47.5229C83.7625 47.8313 84.6473 48 85.5714 48C89.6741 48 93 44.6741 93 40.5715C93 37.1865 90.736 34.3303 87.6396 33.4346C85.9637 31.0141 83.167 29.4287 80 29.4287C79.9566 29.4287 79.9133 29.429 79.8701 29.4296C77.3014 24.9882 72.4997 22 67 22C61.4347 22 56.584 25.06 54.0388 29.5893C53.4227 29.4837 52.7892 29.4287 52.1429 29.4287C45.9888 29.4287 41 34.4175 41 40.5715C41 46.7255 45.9888 51.7144 52.1429 51.7144C54.7214 51.7144 57.0954 50.8385 58.9835 49.3681Z" fill="url(#paint1_linear_70_368)"/>
<path d="M58.9835 49.3681L58.3691 48.5791L58.9279 48.144L59.5238 48.5266L58.9835 49.3681ZM77.2707 47.5925L76.5793 46.87L77.0033 46.4643L77.5642 46.6366L77.2707 47.5925ZM82.9464 47.5229L82.6293 46.5745L82.9668 46.4616L83.2998 46.5874L82.9464 47.5229ZM87.6396 33.4346L87.3617 34.3952L87.02 34.2964L86.8175 34.0039L87.6396 33.4346ZM79.8701 29.4296L79.8838 30.4295L79.2979 30.4375L79.0045 29.9302L79.8701 29.4296ZM54.0388 29.5893L54.9106 30.0792L54.5651 30.6941L53.8699 30.5749L54.0388 29.5893ZM59.5238 48.5266C61.6801 49.9112 64.2448 50.7143 67 50.7143V52.7143C63.8503 52.7143 60.9123 51.7949 58.4432 50.2096L59.5238 48.5266ZM67 50.7143C70.7168 50.7143 74.0899 49.2523 76.5793 46.87L77.9621 48.315C75.1154 51.0392 71.2523 52.7143 67 52.7143V50.7143ZM77.5642 46.6366C78.3332 46.8727 79.1508 47.0001 80 47.0001V49.0001C78.9496 49.0001 77.9342 48.8423 76.9772 48.5485L77.5642 46.6366ZM80 47.0001C80.9207 47.0001 81.8044 46.8503 82.6293 46.5745L83.2635 48.4713C82.2368 48.8146 81.139 49.0001 80 49.0001V47.0001ZM83.2998 46.5874C84.0048 46.8538 84.7699 47 85.5714 47V49C84.5247 49 83.5203 48.8088 82.5929 48.4584L83.2998 46.5874ZM85.5714 47C89.1218 47 92 44.1219 92 40.5715H94C94 45.2264 90.2264 49 85.5714 49V47ZM92 40.5715C92 37.6436 90.0419 35.1705 87.3617 34.3952L87.9175 32.474C91.4301 33.4901 94 36.7294 94 40.5715H92ZM86.8175 34.0039C85.3203 31.8416 82.8251 30.4287 80 30.4287V28.4287C83.5089 28.4287 86.607 30.1866 88.4618 32.8653L86.8175 34.0039ZM80 30.4287C79.9612 30.4287 79.9225 30.4289 79.8838 30.4295L79.8564 28.4296C79.9042 28.429 79.952 28.4287 80 28.4287V30.4287ZM79.0045 29.9302C76.6071 25.7852 72.1282 23 67 23V21C72.8711 21 77.9956 24.1912 80.7358 28.9289L79.0045 29.9302ZM67 23C61.8106 23 57.286 25.8522 54.9106 30.0792L53.1671 29.0994C55.8821 24.2679 61.0588 21 67 21V23ZM53.8699 30.5749C53.3093 30.4788 52.7323 30.4287 52.1429 30.4287V28.4287C52.846 28.4287 53.536 28.4885 54.2078 28.6037L53.8699 30.5749ZM52.1429 30.4287C46.5411 30.4287 42 34.9698 42 40.5715H40C40 33.8652 45.4365 28.4287 52.1429 28.4287V30.4287ZM42 40.5715C42 46.1733 46.5411 50.7144 52.1429 50.7144V52.7144C45.4365 52.7144 40 47.2778 40 40.5715H42ZM52.1429 50.7144C54.491 50.7144 56.6503 49.9176 58.3691 48.5791L59.5979 50.1571C57.5404 51.7594 54.9517 52.7144 52.1429 52.7144V50.7144Z" fill="white" mask="url(#path-3-inside-1_70_368)"/>
<mask id="path-5-inside-2_70_368" fill="white">
<path fill-rule="evenodd" clip-rule="evenodd" d="M47.2873 65.2853C44.7523 66.913 41.7364 67.8571 38.5 67.8571C34.1323 67.8571 30.1663 66.1377 27.2417 63.3389C26.2957 63.6294 25.2911 63.7857 24.25 63.7857C23.1211 63.7857 22.0352 63.6019 21.0205 63.2627C20.1258 63.6007 19.1559 63.7857 18.1429 63.7857C13.6457 63.7857 10 60.1401 10 55.6429C10 51.9325 12.4817 48.8017 15.8757 47.8198C17.7128 45.1665 20.7784 43.4286 24.25 43.4286C24.2975 43.4286 24.345 43.4289 24.3924 43.4295C27.2081 38.5612 32.4715 35.2856 38.5 35.2856C44.6004 35.2856 49.9175 38.6399 52.7074 43.6047C53.3829 43.4889 54.0772 43.4286 54.7857 43.4286C61.5315 43.4286 67 48.8971 67 55.6428C67 62.3886 61.5315 67.8571 54.7857 67.8571C51.9593 67.8571 49.357 66.8971 47.2873 65.2853Z"/>
</mask>
<path fill-rule="evenodd" clip-rule="evenodd" d="M47.2873 65.2853C44.7523 66.913 41.7364 67.8571 38.5 67.8571C34.1323 67.8571 30.1663 66.1377 27.2417 63.3389C26.2957 63.6294 25.2911 63.7857 24.25 63.7857C23.1211 63.7857 22.0352 63.6019 21.0205 63.2627C20.1258 63.6007 19.1559 63.7857 18.1429 63.7857C13.6457 63.7857 10 60.1401 10 55.6429C10 51.9325 12.4817 48.8017 15.8757 47.8198C17.7128 45.1665 20.7784 43.4286 24.25 43.4286C24.2975 43.4286 24.345 43.4289 24.3924 43.4295C27.2081 38.5612 32.4715 35.2856 38.5 35.2856C44.6004 35.2856 49.9175 38.6399 52.7074 43.6047C53.3829 43.4889 54.0772 43.4286 54.7857 43.4286C61.5315 43.4286 67 48.8971 67 55.6428C67 62.3886 61.5315 67.8571 54.7857 67.8571C51.9593 67.8571 49.357 66.8971 47.2873 65.2853Z" fill="url(#paint2_linear_70_368)"/>
<path d="M47.2873 65.2853L47.9018 64.4963L47.343 64.0612L46.747 64.4438L47.2873 65.2853ZM27.2417 63.3389L27.9331 62.6165L27.5091 62.2108L26.9482 62.383L27.2417 63.3389ZM21.0205 63.2627L21.3375 62.3143L21 62.2014L20.667 62.3272L21.0205 63.2627ZM15.8757 47.8198L16.1536 48.7804L16.4953 48.6816L16.6979 48.3891L15.8757 47.8198ZM24.3924 43.4295L24.3787 44.4294L24.9647 44.4375L25.258 43.9302L24.3924 43.4295ZM52.7074 43.6047L51.8356 44.0946L52.1812 44.7095L52.8764 44.5903L52.7074 43.6047ZM46.747 64.4438C44.3683 65.9712 41.5391 66.8571 38.5 66.8571V68.8571C41.9336 68.8571 45.1362 67.8549 47.8276 66.1268L46.747 64.4438ZM38.5 66.8571C34.4001 66.8571 30.679 65.2443 27.9331 62.6165L26.5503 64.0614C29.6535 67.0312 33.8646 68.8571 38.5 68.8571V66.8571ZM26.9482 62.383C26.0963 62.6446 25.1905 62.7857 24.25 62.7857V64.7857C25.3917 64.7857 26.4952 64.6142 27.5352 64.2949L26.9482 62.383ZM24.25 62.7857C23.2303 62.7857 22.2514 62.6198 21.3375 62.3143L20.7034 64.2111C21.819 64.5841 23.012 64.7857 24.25 64.7857V62.7857ZM20.667 62.3272C19.8835 62.6233 19.0333 62.7857 18.1429 62.7857V64.7857C19.2785 64.7857 20.368 64.5782 21.3739 64.1981L20.667 62.3272ZM18.1429 62.7857C14.198 62.7857 11 59.5878 11 55.6429H9C9 60.6923 13.0934 64.7857 18.1429 64.7857V62.7857ZM11 55.6429C11 52.3896 13.1758 49.6419 16.1536 48.7804L15.5978 46.8592C11.7876 47.9615 9 51.4754 9 55.6429H11ZM16.6979 48.3891C18.3562 45.994 21.1204 44.4286 24.25 44.4286V42.4286C20.4365 42.4286 17.0694 44.339 15.0535 47.2506L16.6979 48.3891ZM24.25 44.4286C24.2929 44.4286 24.3358 44.4289 24.3787 44.4294L24.4061 42.4296C24.3542 42.4289 24.3022 42.4286 24.25 42.4286V44.4286ZM25.258 43.9302C27.9024 39.3581 32.843 36.2856 38.5 36.2856V34.2856C32.1001 34.2856 26.5139 37.7642 23.5268 42.9289L25.258 43.9302ZM38.5 36.2856C44.2245 36.2856 49.2155 39.432 51.8356 44.0946L53.5792 43.1148C50.6194 37.8477 44.9763 34.2856 38.5 34.2856V36.2856ZM52.8764 44.5903C53.4962 44.484 54.1341 44.4286 54.7857 44.4286V42.4286C54.0204 42.4286 53.2695 42.4937 52.5385 42.619L52.8764 44.5903ZM54.7857 44.4286C60.9792 44.4286 66 49.4494 66 55.6428H68C68 48.3448 62.0838 42.4286 54.7857 42.4286V44.4286ZM66 55.6428C66 61.8363 60.9792 66.8571 54.7857 66.8571V68.8571C62.0838 68.8571 68 62.9409 68 55.6428H66ZM54.7857 66.8571C52.1896 66.8571 49.8021 65.9762 47.9018 64.4963L46.6729 66.0743C48.912 67.818 51.7289 68.8571 54.7857 68.8571V66.8571Z" fill="white" mask="url(#path-5-inside-2_70_368)"/>
<defs>
<filter id="filter0_bd_70_368" x="-16" y="-20" width="136" height="136" filterUnits="userSpaceOnUse" color-interpolation-filters="sRGB">
<feFlood flood-opacity="0" result="BackgroundImageFix"/>
<feGaussianBlur in="BackgroundImage" stdDeviation="10"/>
<feComposite in2="SourceAlpha" operator="in" result="effect1_backgroundBlur_70_368"/>
<feColorMatrix in="SourceAlpha" type="matrix" values="0 0 0 0 0 0 0 0 0 0 0 0 0 0 0 0 0 0 127 0" result="hardAlpha"/>
<feOffset dy="4"/>
<feGaussianBlur stdDeviation="2"/>
<feComposite in2="hardAlpha" operator="out"/>
<feColorMatrix type="matrix" values="0 0 0 0 0 0 0 0 0 0 0 0 0 0 0 0 0 0 0.25 0"/>
<feBlend mode="normal" in2="effect1_backgroundBlur_70_368" result="effect2_dropShadow_70_368"/>
<feBlend mode="normal" in="SourceGraphic" in2="effect2_dropShadow_70_368" result="shape"/>
</filter>
<linearGradient id="paint0_linear_70_368" x1="52" y1="0" x2="52" y2="96" gradientUnits="userSpaceOnUse">
<stop stop-color="white" stop-opacity="0"/>
<stop offset="0.713542" stop-color="white" stop-opacity="0.234375"/>
<stop offset="1" stop-color="white" stop-opacity="0.5"/>
</linearGradient>
<linearGradient id="paint1_linear_70_368" x1="70.0588" y1="48.3824" x2="71.9706" y2="26.9706" gradientUnits="userSpaceOnUse">
<stop stop-color="white"/>
<stop offset="1" stop-color="#C4DCF3"/>
</linearGradient>
<linearGradient id="paint2_linear_70_368" x1="35.1471" y1="64.2048" x2="33.0515" y2="40.7342" gradientUnits="userSpaceOnUse">
<stop stop-color="white"/>
<stop offset="1" stop-color="#C4DCF3"/>
</linearGradient>
</defs>
</svg>
