<svg width="104" height="104" viewBox="0 0 104 104" fill="none" xmlns="http://www.w3.org/2000/svg">
<g filter="url(#filter0_bd_74_695)">
<rect x="4" width="96" height="96" rx="48" fill="url(#paint0_linear_74_695)" shape-rendering="crispEdges"/>
<rect x="4.5" y="0.5" width="95" height="95" rx="47.5" stroke="white" shape-rendering="crispEdges"/>
</g>
<mask id="path-3-inside-1_74_695" fill="white">
<path fill-rule="evenodd" clip-rule="evenodd" d="M56.5207 67.4957C53.6299 69.352 50.1906 70.4285 46.5 70.4285C41.5193 70.4285 36.9965 68.4678 33.6615 65.2762C32.5828 65.6074 31.4372 65.7856 30.25 65.7856C28.9627 65.7856 27.7244 65.5761 26.5673 65.1892C25.547 65.5747 24.441 65.7857 23.2857 65.7857C18.1574 65.7857 14 61.6284 14 56.5C14 52.2689 16.8299 48.6987 20.7003 47.579C22.7952 44.5532 26.2912 42.5713 30.25 42.5713C30.3042 42.5713 30.3584 42.5717 30.4124 42.5724C33.6234 37.0208 39.6255 33.2856 46.5 33.2856C53.4566 33.2856 59.5198 37.1106 62.7014 42.7721C63.4716 42.6401 64.2635 42.5713 65.0714 42.5713C72.764 42.5713 79 48.8074 79 56.4999C79 64.1924 72.764 70.4285 65.0714 70.4285C61.8483 70.4285 58.8809 69.3337 56.5207 67.4957Z"/>
</mask>
<path fill-rule="evenodd" clip-rule="evenodd" d="M56.5207 67.4957C53.6299 69.352 50.1906 70.4285 46.5 70.4285C41.5193 70.4285 36.9965 68.4678 33.6615 65.2762C32.5828 65.6074 31.4372 65.7856 30.25 65.7856C28.9627 65.7856 27.7244 65.5761 26.5673 65.1892C25.547 65.5747 24.441 65.7857 23.2857 65.7857C18.1574 65.7857 14 61.6284 14 56.5C14 52.2689 16.8299 48.6987 20.7003 47.579C22.7952 44.5532 26.2912 42.5713 30.25 42.5713C30.3042 42.5713 30.3584 42.5717 30.4124 42.5724C33.6234 37.0208 39.6255 33.2856 46.5 33.2856C53.4566 33.2856 59.5198 37.1106 62.7014 42.7721C63.4716 42.6401 64.2635 42.5713 65.0714 42.5713C72.764 42.5713 79 48.8074 79 56.4999C79 64.1924 72.764 70.4285 65.0714 70.4285C61.8483 70.4285 58.8809 69.3337 56.5207 67.4957Z" fill="url(#paint1_linear_74_695)"/>
<path d="M56.5207 67.4957L57.1351 66.7068L56.5764 66.2716L55.9804 66.6543L56.5207 67.4957ZM33.6615 65.2762L34.3529 64.5537L33.9289 64.148L33.368 64.3202L33.6615 65.2762ZM26.5673 65.1892L26.8844 64.2408L26.5468 64.128L26.2138 64.2538L26.5673 65.1892ZM20.7003 47.579L20.9782 48.5396L21.3199 48.4407L21.5224 48.1482L20.7003 47.579ZM30.4124 42.5724L30.3987 43.5723L30.9847 43.5804L31.2781 43.0731L30.4124 42.5724ZM62.7014 42.7721L61.8296 43.262L62.1751 43.8769L62.8703 43.7578L62.7014 42.7721ZM55.9804 66.6543C53.2459 68.4101 49.9934 69.4285 46.5 69.4285V71.4285C50.3879 71.4285 54.0138 70.2938 57.061 68.3372L55.9804 66.6543ZM46.5 69.4285C41.7871 69.4285 37.5093 67.5744 34.3529 64.5537L32.9701 65.9986C36.4838 69.3613 41.2515 71.4285 46.5 71.4285V69.4285ZM33.368 64.3202C32.3833 64.6225 31.3366 64.7856 30.25 64.7856V66.7856C31.5378 66.7856 32.7823 66.5922 33.955 66.2321L33.368 64.3202ZM30.25 64.7856C29.0719 64.7856 27.9406 64.5939 26.8844 64.2408L26.2502 66.1376C27.5083 66.5582 28.8536 66.7856 30.25 66.7856V64.7856ZM26.2138 64.2538C25.3048 64.5973 24.3184 64.7857 23.2857 64.7857V66.7857C24.5636 66.7857 25.7893 66.5522 26.9208 66.1247L26.2138 64.2538ZM23.2857 64.7857C18.7096 64.7857 15 61.0761 15 56.5H13C13 62.1807 17.6051 66.7857 23.2857 66.7857V64.7857ZM15 56.5C15 52.726 17.524 49.5389 20.9782 48.5396L20.4224 46.6184C16.1358 47.8585 13 51.8118 13 56.5H15ZM21.5224 48.1482C23.4386 45.3807 26.6331 43.5713 30.25 43.5713V41.5713C25.9492 41.5713 22.1518 43.7258 19.8781 47.0097L21.5224 48.1482ZM30.25 43.5713C30.2996 43.5713 30.3492 43.5717 30.3987 43.5723L30.4262 41.5725C30.3676 41.5717 30.3088 41.5713 30.25 41.5713V43.5713ZM31.2781 43.0731C34.3176 37.8178 39.9969 34.2856 46.5 34.2856V32.2856C39.2541 32.2856 32.9291 36.2238 29.5468 42.0718L31.2781 43.0731ZM46.5 34.2856C53.0807 34.2856 58.8179 37.9028 61.8296 43.262L63.5731 42.2822C60.2218 36.3184 53.8325 32.2856 46.5 32.2856V34.2856ZM62.8703 43.7578C63.585 43.6353 64.3204 43.5713 65.0714 43.5713V41.5713C64.2066 41.5713 63.3582 41.645 62.5324 41.7865L62.8703 43.7578ZM65.0714 43.5713C72.2117 43.5713 78 49.3596 78 56.4999H80C80 48.2551 73.3163 41.5713 65.0714 41.5713V43.5713ZM78 56.4999C78 63.6401 72.2117 69.4285 65.0714 69.4285V71.4285C73.3163 71.4285 80 64.7447 80 56.4999H78ZM65.0714 69.4285C62.0787 69.4285 59.3259 68.4128 57.1351 66.7068L55.9063 68.2847C58.4359 70.2546 61.618 71.4285 65.0714 71.4285V69.4285Z" fill="white" mask="url(#path-3-inside-1_74_695)"/>
<circle cx="53" cy="37" r="18" fill="url(#paint2_linear_74_695)"/>
<defs>
<filter id="filter0_bd_74_695" x="-16" y="-20" width="136" height="136" filterUnits="userSpaceOnUse" color-interpolation-filters="sRGB">
<feFlood flood-opacity="0" result="BackgroundImageFix"/>
<feGaussianBlur in="BackgroundImage" stdDeviation="10"/>
<feComposite in2="SourceAlpha" operator="in" result="effect1_backgroundBlur_74_695"/>
<feColorMatrix in="SourceAlpha" type="matrix" values="0 0 0 0 0 0 0 0 0 0 0 0 0 0 0 0 0 0 127 0" result="hardAlpha"/>
<feOffset dy="4"/>
<feGaussianBlur stdDeviation="2"/>
<feComposite in2="hardAlpha" operator="out"/>
<feColorMatrix type="matrix" values="0 0 0 0 0 0 0 0 0 0 0 0 0 0 0 0 0 0 0.25 0"/>
<feBlend mode="normal" in2="effect1_backgroundBlur_74_695" result="effect2_dropShadow_74_695"/>
<feBlend mode="normal" in="SourceGraphic" in2="effect2_dropShadow_74_695" result="shape"/>
</filter>
<linearGradient id="paint0_linear_74_695" x1="52" y1="0" x2="52" y2="96" gradientUnits="userSpaceOnUse">
<stop stop-color="#87C5FF"/>
<stop offset="0.338542" stop-color="#87C5FF" stop-opacity="0.520833"/>
<stop offset="1" stop-color="#87C5FF" stop-opacity="0"/>
</linearGradient>
<linearGradient id="paint1_linear_74_695" x1="42.6765" y1="66.2636" x2="40.2868" y2="39.4989" gradientUnits="userSpaceOnUse">
<stop stop-color="white"/>
<stop offset="1" stop-color="#C4DCF3"/>
</linearGradient>
<linearGradient id="paint2_linear_74_695" x1="53" y1="19" x2="53" y2="55" gradientUnits="userSpaceOnUse">
<stop offset="0.239583" stop-color="#FFC672"/>
<stop offset="1" stop-color="#FFD260" stop-opacity="0"/>
</linearGradient>
</defs>
</svg>
