<svg width="104" height="104" viewBox="0 0 104 104" fill="none" xmlns="http://www.w3.org/2000/svg">
<g filter="url(#filter0_bd_42_284)">
<rect x="4" width="96" height="96" rx="48" fill="url(#paint0_linear_42_284)" shape-rendering="crispEdges"/>
<rect x="4.5" y="0.5" width="95" height="95" rx="47.5" stroke="white" shape-rendering="crispEdges"/>
</g>
<path d="M35.6556 61.7625C35.5073 61.9034 35.4598 62.1204 35.5356 62.3104C35.6115 62.5004 35.7954 62.625 36 62.625H45.2141L35.5471 83.2881C35.4453 83.5058 35.5127 83.7652 35.7077 83.9057C35.9027 84.0462 36.1701 84.028 36.3444 83.8625L61.3444 60.1125C61.4927 59.9716 61.5402 59.7546 61.4644 59.5646C61.3885 59.3746 61.2046 59.25 61 59.25H54.4072L61.4227 48.142C61.5055 48.011 61.5228 47.8489 61.4696 47.7034C61.4164 47.5578 61.2987 47.4451 61.1509 47.3983L53.6509 45.0233C53.4774 44.9684 53.2876 45.0121 53.1556 45.1375L35.6556 61.7625Z" fill="url(#paint1_linear_42_284)" stroke="white" stroke-linejoin="round"/>
<mask id="path-4-inside-1_42_284" fill="white">
<path fill-rule="evenodd" clip-rule="evenodd" d="M63.4832 51.789C60.4589 53.7309 56.861 54.8571 53 54.8571C47.7894 54.8571 43.0579 52.806 39.5689 49.467C38.4405 49.8135 37.242 50 36 50C34.6533 50 33.3578 49.7808 32.1473 49.376C31.0799 49.7793 29.9229 50 28.7143 50C23.3492 50 19 45.6508 19 40.2858C19 35.8593 21.9606 32.1244 26.0096 30.953C28.2012 27.7876 31.8585 25.7143 36 25.7143C36.0567 25.7143 36.1134 25.7147 36.1699 25.7154C39.5291 19.9076 45.8082 16 53 16C60.2777 16 66.6208 20.0015 69.9491 25.9244C70.7549 25.7862 71.5833 25.7143 72.4286 25.7143C80.4761 25.7143 87 32.2381 87 40.2857C87 48.3333 80.4761 54.8571 72.4286 54.8571C69.0567 54.8571 65.9523 53.7118 63.4832 51.789Z"/>
</mask>
<path fill-rule="evenodd" clip-rule="evenodd" d="M63.4832 51.789C60.4589 53.7309 56.861 54.8571 53 54.8571C47.7894 54.8571 43.0579 52.806 39.5689 49.467C38.4405 49.8135 37.242 50 36 50C34.6533 50 33.3578 49.7808 32.1473 49.376C31.0799 49.7793 29.9229 50 28.7143 50C23.3492 50 19 45.6508 19 40.2858C19 35.8593 21.9606 32.1244 26.0096 30.953C28.2012 27.7876 31.8585 25.7143 36 25.7143C36.0567 25.7143 36.1134 25.7147 36.1699 25.7154C39.5291 19.9076 45.8082 16 53 16C60.2777 16 66.6208 20.0015 69.9491 25.9244C70.7549 25.7862 71.5833 25.7143 72.4286 25.7143C80.4761 25.7143 87 32.2381 87 40.2857C87 48.3333 80.4761 54.8571 72.4286 54.8571C69.0567 54.8571 65.9523 53.7118 63.4832 51.789Z" fill="url(#paint2_linear_42_284)"/>
<path d="M63.4832 51.789L64.0976 51L63.5388 50.5649L62.9429 50.9475L63.4832 51.789ZM39.5689 49.467L40.2603 48.7446L39.8364 48.3388L39.2754 48.5111L39.5689 49.467ZM32.1473 49.376L32.4643 48.4276L32.1268 48.3148L31.7938 48.4406L32.1473 49.376ZM26.0096 30.953L26.2875 31.9136L26.6292 31.8147L26.8317 31.5222L26.0096 30.953ZM36.1699 25.7154L36.1562 26.7153L36.7422 26.7234L37.0356 26.2161L36.1699 25.7154ZM69.9491 25.9244L69.0773 26.4143L69.4229 27.0292L70.1181 26.91L69.9491 25.9244ZM62.9429 50.9475C60.075 52.789 56.6637 53.8571 53 53.8571V55.8571C57.0582 55.8571 60.8428 54.6728 64.0235 52.6305L62.9429 50.9475ZM53 53.8571C48.0572 53.8571 43.5707 51.9125 40.2603 48.7446L38.8775 50.1895C42.5452 53.6994 47.5216 55.8571 53 55.8571V53.8571ZM39.2754 48.5111C38.241 48.8287 37.1414 49 36 49V51C37.3426 51 38.64 50.7983 39.8625 50.423L39.2754 48.5111ZM36 49C34.7624 49 33.574 48.7986 32.4643 48.4276L31.8302 50.3244C33.1416 50.7629 34.5441 51 36 51V49ZM31.7938 48.4406C30.8376 48.8019 29.8003 49 28.7143 49V51C30.0455 51 31.3221 50.7568 32.5007 50.3115L31.7938 48.4406ZM28.7143 49C23.9015 49 20 45.0985 20 40.2858H18C18 46.2031 22.7969 51 28.7143 51V49ZM20 40.2858C20 36.3164 22.6547 32.9646 26.2875 31.9136L25.7317 29.9924C21.2664 31.2842 18 35.4022 18 40.2858H20ZM26.8317 31.5222C28.8446 28.6151 32.2004 26.7143 36 26.7143V24.7143C31.5165 24.7143 27.5578 26.9602 25.1874 30.3837L26.8317 31.5222ZM36 26.7143C36.0521 26.7143 36.1042 26.7146 36.1562 26.7153L36.1836 24.7155C36.1226 24.7147 36.0613 24.7143 36 24.7143V26.7143ZM37.0356 26.2161C40.2233 20.7046 46.1796 17 53 17V15C45.4368 15 38.8348 19.1106 35.3043 25.2148L37.0356 26.2161ZM53 17C59.9018 17 65.9188 20.7937 69.0773 26.4143L70.8209 25.4345C67.3227 19.2093 60.6535 15 53 15V17ZM70.1181 26.91C70.8683 26.7814 71.6402 26.7143 72.4286 26.7143V24.7143C71.5265 24.7143 70.6415 24.7911 69.7802 24.9387L70.1181 26.91ZM72.4286 26.7143C79.9239 26.7143 86 32.7904 86 40.2857H88C88 31.6858 81.0284 24.7143 72.4286 24.7143V26.7143ZM86 40.2857C86 47.781 79.9239 53.8571 72.4286 53.8571V55.8571C81.0284 55.8571 88 48.8856 88 40.2857H86ZM72.4286 53.8571C69.287 53.8571 66.3973 52.7909 64.0976 51L62.8688 52.578C65.5073 54.6327 68.8263 55.8571 72.4286 55.8571V53.8571Z" fill="white" mask="url(#path-4-inside-1_42_284)"/>
<defs>
<filter id="filter0_bd_42_284" x="-16" y="-20" width="136" height="136" filterUnits="userSpaceOnUse" color-interpolation-filters="sRGB">
<feFlood flood-opacity="0" result="BackgroundImageFix"/>
<feGaussianBlur in="BackgroundImage" stdDeviation="10"/>
<feComposite in2="SourceAlpha" operator="in" result="effect1_backgroundBlur_42_284"/>
<feColorMatrix in="SourceAlpha" type="matrix" values="0 0 0 0 0 0 0 0 0 0 0 0 0 0 0 0 0 0 127 0" result="hardAlpha"/>
<feOffset dy="4"/>
<feGaussianBlur stdDeviation="2"/>
<feComposite in2="hardAlpha" operator="out"/>
<feColorMatrix type="matrix" values="0 0 0 0 0 0 0 0 0 0 0 0 0 0 0 0 0 0 0.25 0"/>
<feBlend mode="normal" in2="effect1_backgroundBlur_42_284" result="effect2_dropShadow_42_284"/>
<feBlend mode="normal" in="SourceGraphic" in2="effect2_dropShadow_42_284" result="shape"/>
</filter>
<linearGradient id="paint0_linear_42_284" x1="52" y1="0" x2="52" y2="96" gradientUnits="userSpaceOnUse">
<stop stop-color="white" stop-opacity="0"/>
<stop offset="0.713542" stop-color="white" stop-opacity="0.234375"/>
<stop offset="1" stop-color="white" stop-opacity="0.5"/>
</linearGradient>
<linearGradient id="paint1_linear_42_284" x1="47" y1="70" x2="53" y2="42" gradientUnits="userSpaceOnUse">
<stop stop-color="#D9EFFF"/>
<stop offset="1" stop-color="#D9EFFF" stop-opacity="0"/>
</linearGradient>
<linearGradient id="paint2_linear_42_284" x1="49" y1="50.5" x2="46.5" y2="22.5" gradientUnits="userSpaceOnUse">
<stop stop-color="white"/>
<stop offset="1" stop-color="#C4DCF3"/>
</linearGradient>
</defs>
</svg>
