<svg width="13" height="16" viewBox="0 0 13 16" fill="none" xmlns="http://www.w3.org/2000/svg">
<path d="M1.73715 5.77735L1.73717 5.77737L1.7404 5.77304L5.16767 1.17139C5.83439 0.276204 7.16561 0.276204 7.83233 1.17139L11.2596 5.77303L11.2596 5.77305L11.2628 5.77735C11.2893 5.81211 11.3154 5.84717 11.3412 5.88253L11.3412 5.88255L11.3444 5.88688L11.4052 5.96853L11.4929 6.10074C12.1289 7.06001 12.5 8.21276 12.5 9.45455C12.5 12.7966 9.81043 15.5 6.5 15.5C3.18957 15.5 0.5 12.7966 0.5 9.45455C0.5 8.21297 0.870924 7.06041 1.5068 6.10123L1.59465 5.96873L1.65561 5.88688L1.65563 5.8869L1.65881 5.88253C1.68455 5.84718 1.71067 5.81212 1.73715 5.77735Z" stroke="#427DF0"/>
</svg>
