<svg width="15" height="13" viewBox="0 0 15 13" fill="none" xmlns="http://www.w3.org/2000/svg">
<circle cx="7.5" cy="6.5" r="1.5" fill="#427DF0"/>
<circle cx="7.5" cy="6.5" r="1.5" fill="#427DF0"/>
<circle cx="7.5" cy="6.5" r="1.5" fill="#427DF0"/>
<circle cx="13.5" cy="6.5" r="1.5" fill="#427DF0"/>
<circle cx="13.5" cy="6.5" r="1.5" fill="#427DF0"/>
<circle cx="13.5" cy="6.5" r="1.5" fill="#427DF0"/>
<circle cx="1.5" cy="6.5" r="1.5" fill="#427DF0"/>
<circle cx="1.5" cy="6.5" r="1.5" fill="#427DF0"/>
<circle cx="1.5" cy="6.5" r="1.5" fill="#427DF0"/>
<circle cx="10.5" cy="1.5" r="1.5" fill="#427DF0"/>
<circle cx="10.5" cy="1.5" r="1.5" fill="#427DF0"/>
<circle cx="10.5" cy="1.5" r="1.5" fill="#427DF0"/>
<circle cx="4.5" cy="1.5" r="1.5" fill="#427DF0"/>
<circle cx="4.5" cy="1.5" r="1.5" fill="#427DF0"/>
<circle cx="4.5" cy="1.5" r="1.5" fill="#427DF0"/>
<circle cx="10.5" cy="11.5" r="1.5" fill="#427DF0"/>
<circle cx="10.5" cy="11.5" r="1.5" fill="#427DF0"/>
<circle cx="10.5" cy="11.5" r="1.5" fill="#427DF0"/>
<circle cx="4.5" cy="11.5" r="1.5" fill="#427DF0"/>
<circle cx="4.5" cy="11.5" r="1.5" fill="#427DF0"/>
<circle cx="4.5" cy="11.5" r="1.5" fill="#427DF0"/>
</svg>
