<svg width="23" height="17" viewBox="0 0 23 17" fill="none" xmlns="http://www.w3.org/2000/svg">
<path d="M11.4735 3.50452C11.4735 2.12131 10.3521 1 8.96894 1C7.58573 1 6.46442 2.12131 6.46442 3.50452C6.46442 4.88773 7.58573 6.00905 8.96894 6.00905H22.1746" stroke="#427DF0" stroke-linecap="round"/>
<path d="M4.48455 7.03356C4.48455 6.09046 3.70451 5.32593 2.74228 5.32593C1.78004 5.32593 1 6.09046 1 7.03356C1 7.97665 1.78004 8.74119 2.74228 8.74119H18.987" stroke="#427DF0" stroke-linecap="round"/>
<path d="M7.14747 13.9779C7.14747 15.3611 6.02616 16.4824 4.64295 16.4824C3.25974 16.4824 2.13843 15.3611 2.13843 13.9779C2.13843 12.5947 3.25974 11.4734 4.64295 11.4734L20.8085 11.4734" stroke="#427DF0" stroke-linecap="round"/>
</svg>
